<svg id="Ebene_1" data-name="Ebene 1" xmlns="http://www.w3.org/2000/svg" viewBox="0 0 61 61"><defs><style>.cls-1{fill:#979797;}.cls-2{fill:#fff;}</style></defs><title>icon_station_availability</title><path class="cls-1" d="M41.28.06H19.19a5,5,0,0,0-5,5V27.1a5,5,0,0,0,5,5h2.65l8.39,28,8.05-28h3a5,5,0,0,0,4.95-5V5A5,5,0,0,0,41.28.06Z"/><path class="cls-2" d="M37.74,26.89a.58.58,0,0,1-.58.58H23.31a.58.58,0,0,1-.58-.58V7.19a.58.58,0,0,1,.58-.58H37.16a.58.58,0,0,1,.58.58V21.55h.85V7.19a1.43,1.43,0,0,0-1.43-1.43H34.81V4.23a.57.57,0,0,0-.57-.56h-8a.56.56,0,0,0-.56.56V5.76H23.31a1.44,1.44,0,0,0-1.44,1.43v19.7a1.44,1.44,0,0,0,1.44,1.43H37.16a1.43,1.43,0,0,0,1.43-1.43V20.71h-.85Z"/><rect class="cls-2" x="21.04" y="16.66" width="18.43" height="1.32" rx="0.66" transform="translate(-1.05 32.64) rotate(-55.87)"/></svg>