<svg id="Ebene_1" data-name="Ebene 1" xmlns="http://www.w3.org/2000/svg" viewBox="0 0 61 61"><defs><style>.cls-1{fill:#cf672f;}.cls-2{fill:#fff;}</style></defs><title>icon_station_availability</title><path class="cls-1" d="M41.38.5H19.29a5,5,0,0,0-5,5v22.1a5,5,0,0,0,5,4.95h2.65l8.39,28,8.05-28h3a5,5,0,0,0,4.95-4.95V5.45A5,5,0,0,0,41.38.5Z"/><path class="cls-2" d="M37,28.62H23.35a1.41,1.41,0,0,1-1.41-1.41V7.85a1.41,1.41,0,0,1,1.41-1.41H37a1.41,1.41,0,0,1,1.41,1.41v6.07h-.84V7.85A.58.58,0,0,0,37,7.28H23.35a.58.58,0,0,0-.57.57V27.21a.58.58,0,0,0,.57.57H37a.58.58,0,0,0,.57-.57V21.14h.84v6.07A1.41,1.41,0,0,1,37,28.62Z"/><rect class="cls-2" x="24.35" y="21.79" width="11.63" height="3.32" rx="0.66"/><rect class="cls-2" x="27.97" y="15.87" width="11.63" height="3.32" rx="0.66"/><rect class="cls-2" x="24.35" y="9.96" width="11.63" height="3.32" rx="0.66"/><rect class="cls-2" x="25.66" y="4.38" width="9" height="2.63" rx="0.66"/></svg>