<svg id="Ebene_1" data-name="Ebene 1" xmlns="http://www.w3.org/2000/svg" viewBox="0 0 61 61"><defs><style>.cls-1{fill:#e7ad47;}.cls-2{fill:#fff;}</style></defs><title>icon_station_availability</title><path class="cls-1" d="M42.38.5H20.29a5,5,0,0,0-5,5v22.1a5,5,0,0,0,5,4.95h2.65l8.39,28,8.05-28h3a5,5,0,0,0,4.95-4.95V5.45A5,5,0,0,0,42.38.5Z"/><path class="cls-2" d="M38,28H24.36A1.41,1.41,0,0,1,23,26.54V7.18a1.41,1.41,0,0,1,1.41-1.41H38a1.41,1.41,0,0,1,1.41,1.41v6.08h-.84V7.18A.57.57,0,0,0,38,6.61H24.36a.57.57,0,0,0-.57.57V26.54a.56.56,0,0,0,.57.57H38a.56.56,0,0,0,.57-.57V20.47h.84v6.07A1.41,1.41,0,0,1,38,28Z"/><rect class="cls-2" x="25.35" y="21.12" width="11.63" height="3.32" rx="0.66"/><rect class="cls-2" x="28.98" y="15.2" width="11.63" height="3.32" rx="0.66"/><rect class="cls-2" x="26.67" y="3.72" width="9" height="2.63" rx="0.66"/></svg>